<?xml version='1.0' encoding='utf-8'?>
<svg xmlns="http://www.w3.org/2000/svg" xmlns:xlink="http://www.w3.org/1999/xlink" id="Layer_2" viewBox="0 0 761.70105 306.24" role="img" aria-label="VALNATIR"><defs><style>.cls-1{fill:url(#linear-gradient);}.cls-1,.cls-2,.cls-3,.cls-4,.cls-5,.cls-6,.cls-7,.cls-8{stroke-width:0px;}.cls-2{fill:url(#linear-gradient-4);}.cls-3{fill:url(#linear-gradient-2);}.cls-4{fill:url(#linear-gradient-3);}.cls-5{fill:url(#linear-gradient-5);}.cls-6{fill:url(#linear-gradient-6);}.cls-9{isolation:isolate;}.cls-8{fill:#fff;}</style><linearGradient id="linear-gradient" x1="175.68" y1="73.35" x2="305.11" y2="73.35" gradientUnits="userSpaceOnUse"><stop offset="0" stop-color="#185359" /><stop offset="1" stop-color="#4b145f" /></linearGradient><linearGradient id="linear-gradient-2" x1="147.96" y1="50.44" x2="277.39" y2="50.44" xlink:href="#linear-gradient" /><linearGradient id="linear-gradient-3" x1="12.1" y1="205.38" x2="412.02" y2="205.38" xlink:href="#linear-gradient" /><linearGradient id="linear-gradient-4" x1="12.1" y1="205.38" x2="412.02" y2="205.38" xlink:href="#linear-gradient" /><linearGradient id="linear-gradient-5" x1="12.1" y1="205.38" x2="412.02" y2="205.38" xlink:href="#linear-gradient" /><linearGradient id="linear-gradient-6" x1="12.1" y1="205.38" x2="412.02" y2="205.38" xlink:href="#linear-gradient" /><linearGradient id="valnatir-wordmark" gradientUnits="userSpaceOnUse" x1="12.1" y1="0" x2="747.21105" y2="0"><stop offset="0" stop-color="#185359" /><stop offset="1" stop-color="#4b145f" /></linearGradient></defs><g id="Layer_1-2"><path class="cls-1" d="m189.25,67.03l10.48,24.47.33.76c.11.26.22.51.31.7l.58,1.26c.39.84.86,1.64,1.31,2.45.51.78.96,1.59,1.54,2.33.28.37.54.76.83,1.13l.9,1.08c2.41,2.89,5.41,5.31,8.69,7.32,3.31,1.98,6.97,3.43,10.8,4.39,3.83.96,7.88,1.33,11.93,1.26,8.14-.17,16.39-2.34,24.26-5.61,3.97-1.62,7.64-3.52,11.16-5.86,3.51-2.32,6.73-5.07,9.66-8.11,5.8-6.12,10.3-13.63,12.51-21.88,2.24-8.22,2.17-17.18-.76-25.37-.73-2.02-1.64-4.06-2.51-6.1l-2.62-6.12-5.24-12.24,6.09,11.84,3.05,5.92c1.01,1.97,2.05,3.92,2.98,6.01,3.67,8.33,4.47,17.88,2.67,26.91-1.76,9.07-6.05,17.59-11.95,24.76-2.98,3.57-6.33,6.86-10.03,9.7-3.68,2.85-7.76,5.34-11.88,7.36-8.22,4.1-17.22,7.25-26.83,8.14-4.8.42-9.67.33-14.54-.51-4.85-.84-9.65-2.35-14.13-4.61-4.46-2.3-8.68-5.24-12.25-8.91l-1.33-1.39c-.43-.47-.83-.97-1.25-1.46-.85-.96-1.58-2.03-2.35-3.06-.71-1.07-1.43-2.15-2.07-3.27l-.94-1.7-.42-.79-.38-.74-12.18-23.67,13.57-6.39Z" transform="translate(167.59552 0)" /><path class="cls-3" d="m263.82,56.77l-10.48-24.47-.33-.76c-.11-.26-.22-.51-.31-.7l-.58-1.26c-.39-.84-.86-1.64-1.31-2.45-.51-.78-.96-1.59-1.54-2.33-.28-.37-.54-.76-.83-1.13l-.9-1.08c-2.41-2.89-5.41-5.31-8.69-7.32-3.31-1.98-6.97-3.43-10.8-4.39-3.83-.96-7.88-1.33-11.93-1.26-8.14.17-16.39,2.34-24.26,5.61-3.97,1.62-7.64,3.52-11.16,5.86-3.51,2.32-6.73,5.07-9.66,8.11-5.8,6.12-10.3,13.63-12.51,21.88-2.24,8.22-2.17,17.18.76,25.37.73,2.02,1.64,4.06,2.51,6.1l2.62,6.12,5.24,12.24-6.09-11.84-3.05-5.92c-1.01-1.97-2.05-3.92-2.98-6.01-3.67-8.33-4.47-17.88-2.67-26.91,1.76-9.07,6.05-17.59,11.95-24.76,2.98-3.57,6.33-6.86,10.03-9.7,3.68-2.85,7.76-5.34,11.88-7.36,8.22-4.1,17.22-7.25,26.83-8.14,4.8-.42,9.67-.33,14.54.51,4.85.84,9.65,2.35,14.13,4.61,4.46,2.3,8.68,5.24,12.25,8.91l1.33,1.39c.43.47.83.97,1.25,1.46.85.96,1.58,2.03,2.35,3.06.71,1.07,1.43,2.15,2.07,3.27l.94,1.7.42.79.38.74,12.18,23.67-13.57,6.39Z" transform="translate(167.59552 0)" /><g fill="url(#valnatir-wordmark)"><path d="M 48.49441 262.34000 L 61.50863 262.34000 L 97.97871 148.43375 L 80.27332 148.43375 L 55.15285 235.15250 L 54.85019 235.15250 L 29.80539 148.43375 L 12.10000 148.43375 Z M 131.91359 221.55875 L 147.87871 171.79312 L 148.18137 171.79312 L 164.14648 221.55875 Z M 177.46336 262.34000 L 195.09308 262.34000 L 154.99113 148.43375 L 140.99328 148.43375 L 100.89133 262.34000 L 118.59672 262.34000 L 127.07109 236.87125 L 168.91332 236.87125 Z M 218.05668 262.34000 L 288.49992 262.34000 L 288.49992 246.01188 L 234.77844 246.01188 L 234.77844 148.43375 L 218.05668 148.43375 Z M 315.39804 262.34000 L 332.11980 262.34000 L 332.11980 181.40250 L 332.42246 181.40250 L 382.28508 262.34000 L 398.09887 262.34000 L 398.09887 148.43375 L 381.37711 148.43375 L 381.37711 229.37125 L 381.07445 229.37125 L 331.13617 148.43375 L 315.39804 148.43375 Z M 452.08472 221.55875 L 468.04984 171.79312 L 468.35250 171.79312 L 484.31762 221.55875 Z M 497.63449 262.34000 L 515.26422 262.34000 L 475.16226 148.43375 L 461.16441 148.43375 L 421.06246 262.34000 L 438.76785 262.34000 L 447.24222 236.87125 L 489.08445 236.87125 Z M 545.41590 262.34000 L 562.21332 262.34000 L 562.21332 163.82438 L 592.40328 163.82438 L 592.40328 148.43375 L 515.22594 148.43375 L 515.22594 163.82438 L 545.41590 163.82438 Z M 615.36687 262.34000 L 632.08863 262.34000 L 632.08863 148.43375 L 615.36687 148.43375 Z M 683.19926 163.82438 L 709.37902 163.82438 Q 717.39941 163.82438 721.63660 167.34000 Q 727.00875 171.32438 727.16008 180.23062 Q 727.16008 187.65250 722.54457 192.73062 Q 717.85340 198.19938 708.47105 198.35562 L 683.19926 198.35562 Z M 666.47750 262.34000 L 683.19926 262.34000 L 683.19926 213.66812 L 704.53652 213.66812 L 727.31140 262.34000 L 747.21105 262.34000 L 721.63660 211.79312 Q 742.67121 203.43375 742.97387 180.23062 Q 742.51988 164.44938 732.00258 155.93375 Q 723.30121 148.43375 709.53035 148.43375 L 666.47750 148.43375 Z" /></g></g></svg>